<svg width="18" height="18" viewBox="0 0 18 18" fill="none" xmlns="http://www.w3.org/2000/svg">
<path d="M5.9585 11.602L5.44895 12.1177C5.40547 12.1617 5.34646 12.1865 5.28489 12.1866C5.22332 12.1867 5.16424 12.1621 5.12065 12.1182L1.33556 8.3086C1.24853 8.221 1.19954 8.1021 1.19936 7.97805C1.19919 7.854 1.24785 7.73496 1.33463 7.64711L1.84664 7.12886L5.9605 11.2694C6.00409 11.3132 6.02863 11.3728 6.02872 11.435C6.02881 11.4971 6.00443 11.5567 5.96096 11.6007L5.9585 11.602Z" fill="#50E6FF"/>
<path d="M5.36983 3.87928L5.88267 4.39545C5.92627 4.43933 5.95081 4.49889 5.9509 4.56104C5.95098 4.62318 5.92661 4.68281 5.88314 4.72681L1.84168 8.81752L1.32821 8.30074C1.24118 8.21314 1.19219 8.09424 1.19202 7.97019C1.19185 7.84614 1.2405 7.7271 1.32729 7.63925L5.04275 3.87851C5.08634 3.83505 5.14518 3.81074 5.20645 3.81089C5.26772 3.81103 5.32644 3.83562 5.36983 3.87928V3.87928Z" fill="#1490DF"/>
<path d="M16.0869 7.13245L16.5983 7.65008C16.685 7.73792 16.7337 7.85696 16.7335 7.98101C16.7333 8.10506 16.6844 8.22397 16.5973 8.31156L12.8122 12.1212C12.7686 12.1651 12.7096 12.1897 12.648 12.1896C12.5864 12.1895 12.5274 12.1647 12.4839 12.1207L11.975 11.6056C11.9315 11.5616 11.9071 11.5019 11.9072 11.4398C11.9073 11.3776 11.9319 11.3181 11.9755 11.2742L16.0887 7.13431L16.0869 7.13245Z" fill="#50E6FF"/>
<path d="M16.6018 8.29851L16.089 8.81468L12.0475 4.72397C12.0041 4.67996 11.9797 4.62033 11.9798 4.55819C11.9799 4.49605 12.0044 4.43648 12.048 4.3926L12.5608 3.87643C12.6044 3.83256 12.6635 3.80795 12.7251 3.80804C12.7867 3.80813 12.8457 3.8329 12.8891 3.8769L16.6046 7.63765C16.6914 7.72549 16.74 7.84453 16.7399 7.96858C16.7397 8.09263 16.6907 8.21154 16.6037 8.29913L16.6018 8.29851Z" fill="#1490DF"/>
<path d="M8.49594 8.78935H5.37549C5.33169 8.79103 5.28898 8.77536 5.25649 8.74568C5.22399 8.716 5.20429 8.67466 5.2016 8.63051C5.20162 8.60763 5.20699 8.58509 5.21725 8.56469L8.95849 1.09314C8.97441 1.06417 8.99792 1.04017 9.02644 1.02377C9.05496 1.00736 9.08739 0.999182 9.12021 1.00012H12.811C12.8548 0.998435 12.8975 1.01411 12.93 1.04379C12.9625 1.07347 12.9822 1.11481 12.9849 1.15896C12.9846 1.19079 12.9739 1.22164 12.9545 1.24672L8.56115 7.09215H12.8458C12.8896 7.09046 12.9323 7.10613 12.9648 7.13581C12.9973 7.1655 13.017 7.20683 13.0197 7.25098C13.019 7.29126 13.0028 7.32967 12.9745 7.35805L5.85456 14.834C5.78761 14.8743 5.31202 15.2728 5.54503 14.6681L8.49594 8.78935Z" fill="url(#paint0_linear_206_98)"/>
<rect y="16" width="18" height="1" fill="#F5F5F5"/>
<defs>
<linearGradient id="paint0_linear_206_98" x1="9.07508" y1="14.8946" x2="9.07508" y2="0.88979" gradientUnits="userSpaceOnUse">
<stop stop-color="#FEA11B"/>
<stop offset="0.284" stop-color="#FEA51A"/>
<stop offset="0.547" stop-color="#FEB018"/>
<stop offset="0.8" stop-color="#FFC314"/>
<stop offset="1" stop-color="#FFD70F"/>
</linearGradient>
</defs>
</svg>
