<svg width="18" height="18" viewBox="0 0 18 18" fill="none" xmlns="http://www.w3.org/2000/svg">
<path d="M5.56611 10.9876L5.0816 11.4735C5.04026 11.5149 4.98415 11.5383 4.92561 11.5384C4.86707 11.5384 4.81089 11.5153 4.76944 11.4739L1.17043 7.88508C1.08767 7.80256 1.04109 7.69055 1.04093 7.57369C1.04076 7.45682 1.08703 7.34468 1.16955 7.26193L1.65639 6.77371L5.568 10.6743C5.60946 10.7156 5.63279 10.7717 5.63287 10.8303C5.63296 10.8888 5.60978 10.945 5.56844 10.9864L5.56611 10.9876Z" fill="#50E6FF"/>
<path d="M5.0064 3.71244L5.49403 4.1987C5.53549 4.24003 5.55882 4.29614 5.5589 4.35469C5.55899 4.41323 5.53581 4.4694 5.49447 4.51086L1.65169 8.36452L1.16347 7.87768C1.08072 7.79516 1.03414 7.68315 1.03397 7.56628C1.03381 7.44942 1.08007 7.33728 1.16259 7.25453L4.69541 3.71171C4.73685 3.67077 4.7928 3.64787 4.85105 3.64801C4.90931 3.64814 4.96515 3.6713 5.0064 3.71244V3.71244Z" fill="#1490DF"/>
<path d="M15.1966 6.77708L15.6829 7.26472C15.7654 7.34747 15.8116 7.45961 15.8115 7.57648C15.8113 7.69334 15.7647 7.80535 15.682 7.88787L12.083 11.4767C12.0415 11.5181 11.9853 11.5412 11.9268 11.5412C11.8682 11.5411 11.8121 11.5177 11.7708 11.4763L11.2869 10.991C11.2455 10.9495 11.2224 10.8934 11.2224 10.8348C11.2225 10.7763 11.2459 10.7202 11.2873 10.6788L15.1983 6.77884L15.1966 6.77708Z" fill="#50E6FF"/>
<path d="M15.6862 7.87557L15.1986 8.36182L11.3558 4.50816C11.3145 4.46671 11.2913 4.41053 11.2914 4.35199C11.2915 4.29345 11.3148 4.23734 11.3563 4.196L11.8439 3.70974C11.8853 3.66841 11.9415 3.64523 12.0001 3.64531C12.0586 3.6454 12.1147 3.66873 12.1561 3.71019L15.6889 7.253C15.7714 7.33575 15.8176 7.4479 15.8175 7.56476C15.8173 7.68162 15.7707 7.79363 15.688 7.87615L15.6862 7.87557Z" fill="#1490DF"/>
<path d="M7.97883 8.33797H5.01178C4.97013 8.33956 4.92952 8.32479 4.89863 8.29683C4.86773 8.26887 4.849 8.22993 4.84644 8.18833C4.84646 8.16678 4.85156 8.14554 4.86132 8.12633L8.41864 1.08775C8.43378 1.06045 8.45612 1.03784 8.48324 1.02239C8.51036 1.00693 8.5412 0.999229 8.5724 1.00012H12.0818C12.1234 0.998526 12.164 1.01329 12.1949 1.04125C12.2258 1.06922 12.2446 1.10816 12.2471 1.14975C12.2468 1.17974 12.2367 1.20879 12.2182 1.23242L8.04083 6.73912H12.1148C12.1565 6.73753 12.1971 6.75229 12.228 6.78025C12.2589 6.80822 12.2776 6.84716 12.2802 6.88875C12.2796 6.92669 12.2641 6.96288 12.2372 6.98961L5.46729 14.0323C5.40364 14.0704 4.95143 14.4457 5.17298 13.8761L7.97883 8.33797Z" fill="url(#paint0_linear_203_57)"/>
<rect y="15" width="18" height="2" fill="#F5F5F5"/>
<defs>
<linearGradient id="paint0_linear_203_57" x1="8.52949" y1="14.0894" x2="8.52949" y2="0.896176" gradientUnits="userSpaceOnUse">
<stop stop-color="#FEA11B"/>
<stop offset="0.284" stop-color="#FEA51A"/>
<stop offset="0.547" stop-color="#FEB018"/>
<stop offset="0.8" stop-color="#FFC314"/>
<stop offset="1" stop-color="#FFD70F"/>
</linearGradient>
</defs>
</svg>
