<svg width="18" height="18" viewBox="0 0 18 18" fill="none" xmlns="http://www.w3.org/2000/svg">
<path d="M13.3147 13.5291C11.8442 14.6689 9.98094 15.1781 8.13494 14.9445C6.28893 14.7109 4.61136 13.7537 3.47125 12.2835C2.33115 10.8133 1.82191 8.95049 2.05556 7.10491C2.28921 5.25933 3.24661 3.58214 4.71715 2.4423L4.79141 2.39281C6.27038 1.28908 8.1249 0.812682 9.95287 1.06689C11.7808 1.3211 13.4349 2.28543 14.5564 3.7508C15.678 5.21616 16.1766 7.06444 15.9441 8.89489C15.7117 10.7253 14.7669 12.3904 13.3147 13.5291" fill="url(#paint0_radial_206_82)"/>
<path opacity="0.6" d="M7.10992 6.5256C9.0937 4.63929 11.7238 3.58276 14.4616 3.57242C14.1019 3.12765 13.689 2.72871 13.2322 2.38455C11.9003 2.46669 10.5919 2.77349 9.36244 3.29195C8.09659 3.83556 6.95207 4.62645 5.99603 5.6182C6.45554 5.79257 6.84629 6.11088 7.10992 6.5256V6.5256Z" fill="white"/>
<path opacity="0.6" d="M3.63625 9.34679C3.35279 10.0486 3.12383 10.7711 2.95142 11.5081C3.10375 11.7728 3.2747 12.0264 3.46298 12.267C3.6115 12.4567 3.75176 12.6299 3.91678 12.8032C4.11614 11.8213 4.41471 10.8623 4.80789 9.94072C4.36747 9.8621 3.95996 9.65553 3.63625 9.34679V9.34679Z" fill="white"/>
<path opacity="0.55" d="M4.44482 5.6017C4.15366 4.82049 3.96237 4.00562 3.87551 3.17647C3.52925 3.54004 3.22481 3.94125 2.9679 4.37259C3.06103 5.04064 3.21853 5.69812 3.4382 6.33587C3.69674 6.00008 4.04605 5.74531 4.44482 5.6017V5.6017Z" fill="#F2F2F2"/>
<path d="M5.20394 9.97373C6.44797 9.97373 7.45646 8.96548 7.45646 7.72173C7.45646 6.47798 6.44797 5.46973 5.20394 5.46973C3.9599 5.46973 2.95142 6.47798 2.95142 7.72173C2.95142 8.96548 3.9599 9.97373 5.20394 9.97373Z" fill="url(#paint1_linear_206_82)"/>
<path opacity="0.55" d="M8.4878 11.838C8.48811 11.6425 8.52771 11.449 8.60425 11.269C8.68078 11.089 8.7927 10.9263 8.93335 10.7904C8.17268 10.3735 7.47072 9.85759 6.84585 9.25606C6.51935 9.60923 6.08868 9.84908 5.61646 9.94073C5.98868 10.3217 6.38857 10.6746 6.81285 10.9966C7.34114 11.3955 7.90774 11.7409 8.5043 12.0278C8.49472 11.9649 8.48921 11.9016 8.4878 11.838Z" fill="#F2F2F2"/>
<path opacity="0.55" d="M13.686 12.0113C12.9192 12.0117 12.155 11.9231 11.4087 11.7473C11.4128 11.7774 11.4128 11.8079 11.4087 11.838C11.4093 12.0278 11.3724 12.2158 11.3002 12.3914C11.228 12.5669 11.1219 12.7264 10.9879 12.8609C11.9165 13.0449 12.8646 13.1114 13.8098 13.0589C14.1764 12.7274 14.5057 12.3567 14.7916 11.9535C14.4245 11.9943 14.0553 12.0135 13.686 12.0113Z" fill="#F2F2F2"/>
<path d="M9.94829 13.3064C10.7594 13.3064 11.417 12.649 11.417 11.838C11.417 11.0271 10.7594 10.3697 9.94829 10.3697C9.13716 10.3697 8.47961 11.0271 8.47961 11.838C8.47961 12.649 9.13716 13.3064 9.94829 13.3064Z" fill="url(#paint2_linear_206_82)"/>
<path opacity="0.7" d="M11.7552 7.92793C11.8281 7.60526 12.0049 7.31543 12.2586 7.10302C10.9 6.11558 9.66451 4.96905 8.57861 3.6879C7.94578 2.9449 7.39269 2.13757 6.92841 1.27916C6.62022 1.37153 6.31956 1.48736 6.02905 1.62562C6.52591 2.56029 7.12056 3.43962 7.80302 4.24883C8.96293 5.63411 10.2905 6.86995 11.7552 7.92793V7.92793Z" fill="#F2F2F2"/>
<path d="M13.2899 9.7675C14.1512 9.7675 14.8493 9.06947 14.8493 8.20842C14.8493 7.34736 14.1512 6.64934 13.2899 6.64934C12.4287 6.64934 11.7305 7.34736 11.7305 8.20842C11.7305 9.06947 12.4287 9.7675 13.2899 9.7675Z" fill="url(#paint3_linear_206_82)"/>
<path opacity="0.55" d="M15.9054 9.25605L15.6167 9.11581L15.3691 8.98383H15.3196L15.1051 8.8106H15.0473L14.7916 8.64561C14.7029 8.94936 14.5175 9.21584 14.2635 9.40453C14.3625 9.47052 14.4698 9.52827 14.577 9.58601L14.643 9.62726L14.9318 9.78399L15.6414 10.1552C15.7414 9.85563 15.8213 9.54973 15.8807 9.23955L15.9054 9.25605Z" fill="#F2F2F2"/>
<path d="M5.20394 9.97373C6.44797 9.97373 7.45646 8.96548 7.45646 7.72173C7.45646 6.47798 6.44797 5.46973 5.20394 5.46973C3.9599 5.46973 2.95142 6.47798 2.95142 7.72173C2.95142 8.96548 3.9599 9.97373 5.20394 9.97373Z" fill="url(#paint4_linear_206_82)"/>
<path d="M9.94829 13.3064C10.7594 13.3064 11.417 12.649 11.417 11.838C11.417 11.0271 10.7594 10.3697 9.94829 10.3697C9.13716 10.3697 8.47961 11.0271 8.47961 11.838C8.47961 12.649 9.13716 13.3064 9.94829 13.3064Z" fill="url(#paint5_linear_206_82)"/>
<rect y="16" width="18" height="1" fill="#F5F5F5"/>
<defs>
<radialGradient id="paint0_radial_206_82" cx="0" cy="0" r="1" gradientUnits="userSpaceOnUse" gradientTransform="translate(9.00891 7.98487) scale(7.01376 7.01214)">
<stop offset="0.18" stop-color="#5EA0EF"/>
<stop offset="1" stop-color="#0078D4"/>
</radialGradient>
<linearGradient id="paint1_linear_206_82" x1="5.22044" y1="10.0315" x2="5.1957" y2="6.77308" gradientUnits="userSpaceOnUse">
<stop stop-color="#CCCCCC"/>
<stop offset="1" stop-color="#FCFCFC"/>
</linearGradient>
<linearGradient id="paint2_linear_206_82" x1="9.94829" y1="13.3064" x2="9.94829" y2="10.3779" gradientUnits="userSpaceOnUse">
<stop stop-color="#CCCCCC"/>
<stop offset="1" stop-color="#FCFCFC"/>
</linearGradient>
<linearGradient id="paint3_linear_206_82" x1="13.2899" y1="9.75925" x2="13.2899" y2="6.64934" gradientUnits="userSpaceOnUse">
<stop stop-color="#CCCCCC"/>
<stop offset="1" stop-color="#FCFCFC"/>
</linearGradient>
<linearGradient id="paint4_linear_206_82" x1="5.22044" y1="10.0315" x2="5.1957" y2="6.77308" gradientUnits="userSpaceOnUse">
<stop stop-color="#CCCCCC"/>
<stop offset="1" stop-color="#FCFCFC"/>
</linearGradient>
<linearGradient id="paint5_linear_206_82" x1="9.94829" y1="13.3064" x2="9.94829" y2="10.3779" gradientUnits="userSpaceOnUse">
<stop stop-color="#CCCCCC"/>
<stop offset="1" stop-color="#FCFCFC"/>
</linearGradient>
</defs>
</svg>
