<svg width="18" height="18" viewBox="0 0 18 18" fill="none" xmlns="http://www.w3.org/2000/svg">
<path d="M12.9039 11.9694C11.6167 12.9674 9.98584 13.4131 8.37 13.2086C6.75417 13.0041 5.28576 12.1661 4.28781 10.8789C3.28986 9.59169 2.84411 7.96079 3.04863 6.34495C3.25315 4.72912 4.09118 3.26071 5.37836 2.26276L5.44336 2.21942C6.73793 1.2531 8.36122 0.836 9.96127 1.05856C11.5613 1.28113 13.0092 2.12542 13.9908 3.40837C14.9725 4.69132 15.409 6.30952 15.2055 7.91211C15.002 9.5147 14.1751 10.9725 12.9039 11.9694" fill="url(#paint0_radial_203_43)"/>
<path opacity="0.6" d="M7.4728 5.83776C9.20924 4.18627 11.5114 3.26125 13.9078 3.2522C13.593 2.8628 13.2316 2.51352 12.8317 2.2122C11.6659 2.28412 10.5207 2.55273 9.44447 3.00665C8.33645 3.48259 7.33464 4.17502 6.4978 5.04332C6.90002 5.19598 7.24205 5.47467 7.4728 5.83776V5.83776Z" fill="white"/>
<path opacity="0.6" d="M4.43221 8.30775C4.18409 8.92216 3.98368 9.55478 3.83276 10.2C3.9661 10.4318 4.11574 10.6538 4.28054 10.8644C4.41054 11.0305 4.53332 11.1822 4.67776 11.3339C4.85226 10.4742 5.1136 9.63457 5.45776 8.82775C5.07225 8.75892 4.71556 8.57806 4.43221 8.30775V8.30775Z" fill="white"/>
<path opacity="0.55" d="M5.14001 5.02887C4.88514 4.3449 4.71771 3.63147 4.64167 2.90553C4.33859 3.22385 4.07211 3.57511 3.84723 3.95275C3.92875 4.53764 4.06662 5.11328 4.2589 5.67164C4.4852 5.37765 4.79095 5.1546 5.14001 5.02887V5.02887Z" fill="#F2F2F2"/>
<path d="M5.80443 8.85665C6.89335 8.85665 7.7761 7.9739 7.7761 6.88498C7.7761 5.79606 6.89335 4.91331 5.80443 4.91331C4.71551 4.91331 3.83276 5.79606 3.83276 6.88498C3.83276 7.9739 4.71551 8.85665 5.80443 8.85665Z" fill="url(#paint1_linear_203_43)"/>
<path opacity="0.55" d="M8.67886 10.4889C8.67913 10.3177 8.71379 10.1482 8.78079 9.99069C8.84778 9.83313 8.94574 9.69063 9.06886 9.57165C8.40303 9.2067 7.78859 8.75497 7.24164 8.22832C6.95584 8.53753 6.57887 8.74752 6.16553 8.82776C6.49135 9.16129 6.84137 9.47028 7.21275 9.75221C7.67517 10.1014 8.17112 10.4038 8.69331 10.655C8.68492 10.6 8.6801 10.5445 8.67886 10.4889Z" fill="#F2F2F2"/>
<path opacity="0.55" d="M13.2289 10.6405C12.5578 10.6409 11.8888 10.5634 11.2356 10.4094C11.2391 10.4358 11.2391 10.4625 11.2356 10.4889C11.2361 10.655 11.2038 10.8197 11.1406 10.9733C11.0774 11.127 10.9845 11.2667 10.8672 11.3844C11.6801 11.5455 12.5099 11.6037 13.3372 11.5578C13.6582 11.2675 13.9464 10.943 14.1967 10.59C13.8754 10.6257 13.5522 10.6425 13.2289 10.6405Z" fill="#F2F2F2"/>
<path d="M9.95725 11.7744C10.6672 11.7744 11.2428 11.1989 11.2428 10.4889C11.2428 9.77887 10.6672 9.20331 9.95725 9.20331C9.24725 9.20331 8.67169 9.77887 8.67169 10.4889C8.67169 11.1989 9.24725 11.7744 9.95725 11.7744Z" fill="url(#paint2_linear_203_43)"/>
<path opacity="0.7" d="M11.5389 7.06553C11.6027 6.78302 11.7574 6.52927 11.9795 6.3433C10.7902 5.47878 9.70884 4.47497 8.75834 3.3533C8.20442 2.7028 7.72028 1.99597 7.31389 1.24442C7.04413 1.32529 6.78095 1.4267 6.52667 1.54775C6.96158 2.36607 7.48209 3.13593 8.07945 3.84442C9.09474 5.05725 10.2568 6.13924 11.5389 7.06553V7.06553Z" fill="#F2F2F2"/>
<path d="M12.8822 8.67609C13.6361 8.67609 14.2472 8.06496 14.2472 7.31109C14.2472 6.55722 13.6361 5.94609 12.8822 5.94609C12.1283 5.94609 11.5172 6.55722 11.5172 7.31109C11.5172 8.06496 12.1283 8.67609 12.8822 8.67609Z" fill="url(#paint3_linear_203_43)"/>
<path opacity="0.55" d="M15.1717 8.22831L14.9189 8.10553L14.7022 7.98997H14.6589L14.4711 7.83831H14.4205L14.1967 7.69386C14.1191 7.95979 13.9568 8.19311 13.7344 8.35831C13.8211 8.41609 13.915 8.46664 14.0089 8.5172L14.0667 8.55331L14.3194 8.69053L14.9405 9.01553C15.0281 8.75325 15.098 8.48544 15.15 8.21386L15.1717 8.22831Z" fill="#F2F2F2"/>
<path d="M5.80443 8.85665C6.89335 8.85665 7.7761 7.9739 7.7761 6.88498C7.7761 5.79606 6.89335 4.91331 5.80443 4.91331C4.71551 4.91331 3.83276 5.79606 3.83276 6.88498C3.83276 7.9739 4.71551 8.85665 5.80443 8.85665Z" fill="url(#paint4_linear_203_43)"/>
<path d="M9.95725 11.7744C10.6672 11.7744 11.2428 11.1989 11.2428 10.4889C11.2428 9.77887 10.6672 9.20331 9.95725 9.20331C9.24725 9.20331 8.67169 9.77887 8.67169 10.4889C8.67169 11.1989 9.24725 11.7744 9.95725 11.7744Z" fill="url(#paint5_linear_203_43)"/>
<rect y="15" width="18" height="2" fill="#F5F5F5"/>
<defs>
<radialGradient id="paint0_radial_203_43" cx="0" cy="0" r="1" gradientUnits="userSpaceOnUse" gradientTransform="translate(9.135 7.11537) scale(6.13925)">
<stop offset="0.18" stop-color="#5EA0EF"/>
<stop offset="1" stop-color="#0078D4"/>
</radialGradient>
<linearGradient id="paint1_linear_203_43" x1="5.81887" y1="8.9072" x2="5.79721" y2="6.05443" gradientUnits="userSpaceOnUse">
<stop stop-color="#CCCCCC"/>
<stop offset="1" stop-color="#FCFCFC"/>
</linearGradient>
<linearGradient id="paint2_linear_203_43" x1="9.95725" y1="11.7744" x2="9.95725" y2="9.21053" gradientUnits="userSpaceOnUse">
<stop stop-color="#CCCCCC"/>
<stop offset="1" stop-color="#FCFCFC"/>
</linearGradient>
<linearGradient id="paint3_linear_203_43" x1="12.8822" y1="8.66887" x2="12.8822" y2="5.94609" gradientUnits="userSpaceOnUse">
<stop stop-color="#CCCCCC"/>
<stop offset="1" stop-color="#FCFCFC"/>
</linearGradient>
<linearGradient id="paint4_linear_203_43" x1="5.81887" y1="8.9072" x2="5.79721" y2="6.05443" gradientUnits="userSpaceOnUse">
<stop stop-color="#CCCCCC"/>
<stop offset="1" stop-color="#FCFCFC"/>
</linearGradient>
<linearGradient id="paint5_linear_203_43" x1="9.95725" y1="11.7744" x2="9.95725" y2="9.21053" gradientUnits="userSpaceOnUse">
<stop stop-color="#CCCCCC"/>
<stop offset="1" stop-color="#FCFCFC"/>
</linearGradient>
</defs>
</svg>
