<svg width="18" height="18" viewBox="0 0 18 18" fill="none" xmlns="http://www.w3.org/2000/svg">
<path d="M1 4.44606H17.1703V13.461C17.1703 13.6039 17.1135 13.741 17.0124 13.8421C16.9113 13.9432 16.7742 14 16.6313 14H1.53901C1.39606 14 1.25896 13.9432 1.15787 13.8421C1.05679 13.741 1 13.6039 1 13.461V4.44606Z" fill="url(#paint0_linear_203_34)"/>
<path opacity="0.6" d="M15.5856 5.39563H2.71497C2.41729 5.39563 2.17596 5.63695 2.17596 5.93464V12.5052C2.17596 12.8028 2.41729 13.0442 2.71497 13.0442H15.5856C15.8833 13.0442 16.1246 12.8028 16.1246 12.5052V5.93464C16.1246 5.63695 15.8833 5.39563 15.5856 5.39563Z" fill="#5EA0EF"/>
<path d="M1.53901 1H16.6313C16.7742 1 16.9113 1.05679 17.0124 1.15787C17.1135 1.25896 17.1703 1.39606 17.1703 1.53901V4.44606H1V1.53991C0.999883 1.46905 1.01374 1.39886 1.04077 1.33336C1.06781 1.26786 1.10749 1.20834 1.15755 1.15819C1.20762 1.10804 1.26708 1.06826 1.33253 1.04112C1.39799 1.01397 1.46815 1 1.53901 1V1Z" fill="#005BA1"/>
<path opacity="0.8" d="M7.38628 11.2888L7.09791 11.5763C7.08588 11.5885 7.07154 11.5981 7.05573 11.6047C7.03993 11.6114 7.02296 11.6148 7.00583 11.6148C6.9887 11.6148 6.97174 11.6114 6.95593 11.6047C6.94012 11.5981 6.92578 11.5885 6.91375 11.5763L4.82509 9.48131C4.77627 9.43246 4.74884 9.36622 4.74884 9.29715C4.74884 9.22808 4.77627 9.16184 4.82509 9.11299L5.11346 8.82552L7.38718 11.1046C7.41147 11.1292 7.42503 11.1624 7.42486 11.1969C7.42469 11.2314 7.41081 11.2645 7.38628 11.2888ZM10.6679 11.2888L10.9563 11.5763C10.9684 11.5885 10.9827 11.5981 10.9985 11.6047C11.0143 11.6114 11.0313 11.6148 11.0484 11.6148C11.0655 11.6148 11.0825 11.6114 11.0983 11.6047C11.1141 11.5981 11.1284 11.5885 11.1405 11.5763L13.2291 9.48131C13.278 9.43246 13.3054 9.36622 13.3054 9.29715C13.3054 9.22808 13.278 9.16184 13.2291 9.11299L12.9399 8.82552L10.6671 11.1046C10.6428 11.1292 10.6292 11.1624 10.6294 11.1969C10.6295 11.2314 10.6434 11.2645 10.6679 11.2888Z" fill="white"/>
<path d="M7.13658 6.99108L7.42405 7.27945C7.43624 7.29148 7.44593 7.30582 7.45254 7.32162C7.45914 7.33743 7.46255 7.35439 7.46255 7.37153C7.46255 7.38866 7.45914 7.40562 7.45254 7.42143C7.44593 7.43724 7.43624 7.45157 7.42405 7.46361L5.1108 9.77057L4.82333 9.4813C4.79905 9.45717 4.77977 9.42848 4.76662 9.39687C4.75347 9.36526 4.7467 9.33137 4.7467 9.29714C4.7467 9.2629 4.75347 9.22901 4.76662 9.1974C4.77977 9.1658 4.79905 9.1371 4.82333 9.11297L6.95241 6.99018C6.97696 6.96588 7.01015 6.95233 7.04468 6.9525C7.07921 6.95267 7.11227 6.96654 7.13658 6.99108V6.99108ZM10.9159 6.99108L10.6285 7.27945C10.6163 7.29148 10.6066 7.30582 10.6 7.32162C10.5934 7.33743 10.59 7.35439 10.59 7.37153C10.59 7.38866 10.5934 7.40562 10.6 7.42143C10.6066 7.43724 10.6163 7.45157 10.6285 7.46361L12.9417 9.77057L13.2292 9.4822C13.2778 9.43308 13.3051 9.36673 13.3051 9.29759C13.3051 9.22844 13.2778 9.1621 13.2292 9.11297L11.1001 6.99108C11.088 6.97894 11.0736 6.96933 11.0578 6.96279C11.0419 6.95626 11.025 6.95294 11.0078 6.95302C10.9907 6.95311 10.9737 6.95659 10.958 6.96328C10.9422 6.96997 10.9279 6.97972 10.9159 6.99197V6.99108Z" fill="white"/>
<path d="M8.32962 12.3183L7.86876 12.1718C7.84531 12.164 7.82586 12.1473 7.81461 12.1253C7.80335 12.1033 7.80118 12.0778 7.80857 12.0542L9.68612 6.18884C9.68946 6.17698 9.69521 6.16594 9.70301 6.15639C9.7108 6.14685 9.72048 6.13901 9.73143 6.13336C9.74239 6.12772 9.75438 6.12439 9.76668 6.12358C9.77898 6.12277 9.79131 6.12449 9.80291 6.12865L10.2638 6.27598C10.2756 6.27933 10.2867 6.28507 10.2962 6.29287C10.3058 6.30066 10.3136 6.31034 10.3192 6.32129C10.3249 6.33225 10.3282 6.34424 10.329 6.35654C10.3298 6.36884 10.3281 6.38117 10.3239 6.39277L8.4464 12.2617C8.44267 12.2732 8.43665 12.2839 8.42869 12.293C8.42073 12.3022 8.411 12.3096 8.40009 12.3149C8.38918 12.3202 8.37731 12.3232 8.3652 12.3238C8.35309 12.3244 8.34098 12.3225 8.32962 12.3183Z" fill="white"/>
<path d="M3.84419 2.87127C3.84419 3.0063 3.80415 3.13831 3.72913 3.25058C3.6541 3.36286 3.54747 3.45037 3.42272 3.50204C3.29796 3.55372 3.16069 3.56724 3.02825 3.5409C2.89581 3.51455 2.77415 3.44953 2.67867 3.35404C2.58319 3.25856 2.51816 3.13691 2.49182 3.00447C2.46547 2.87203 2.47899 2.73475 2.53067 2.60999C2.58235 2.48524 2.66985 2.37861 2.78213 2.30359C2.89441 2.22857 3.02641 2.18852 3.16144 2.18852C3.2511 2.18852 3.33988 2.20618 3.42272 2.2405C3.50555 2.27481 3.58082 2.3251 3.64422 2.3885C3.70762 2.45189 3.75791 2.52716 3.79222 2.60999C3.82653 2.69283 3.84419 2.78161 3.84419 2.87127V2.87127ZM5.31209 2.18852C5.17706 2.18852 5.04505 2.22857 4.93278 2.30359C4.8205 2.37861 4.73299 2.48524 4.68132 2.60999C4.62964 2.73475 4.61612 2.87203 4.64246 3.00447C4.66881 3.13691 4.73383 3.25856 4.82932 3.35404C4.9248 3.44953 5.04645 3.51455 5.17889 3.5409C5.31133 3.56724 5.44861 3.55372 5.57337 3.50204C5.69812 3.45037 5.80475 3.36286 5.87977 3.25058C5.95479 3.13831 5.99484 3.0063 5.99484 2.87127C5.99484 2.69019 5.9229 2.51654 5.79486 2.3885C5.66682 2.26046 5.49317 2.18852 5.31209 2.18852V2.18852ZM7.46184 2.18852C7.3268 2.18852 7.1948 2.22857 7.08253 2.30359C6.97025 2.37861 6.88274 2.48524 6.83106 2.60999C6.77939 2.73475 6.76587 2.87203 6.79221 3.00447C6.81856 3.13691 6.88358 3.25856 6.97906 3.35404C7.07455 3.44953 7.1962 3.51455 7.32864 3.5409C7.46108 3.56724 7.59836 3.55372 7.72311 3.50204C7.84787 3.45037 7.9545 3.36286 8.02952 3.25058C8.10454 3.13831 8.14458 3.0063 8.14458 2.87127C8.14458 2.78146 8.12686 2.69253 8.09244 2.60958C8.05802 2.52663 8.00757 2.45128 7.94398 2.38786C7.88039 2.32444 7.80491 2.27418 7.72187 2.23998C7.63883 2.20577 7.54985 2.18829 7.46004 2.18852H7.46184Z" fill="white"/>
<rect y="15" width="18" height="2" fill="#F5F5F5"/>
<defs>
<linearGradient id="paint0_linear_203_34" x1="9.08514" y1="14.0009" x2="9.08514" y2="4.44516" gradientUnits="userSpaceOnUse">
<stop stop-color="#005BA1"/>
<stop offset="0.775" stop-color="#0078D4"/>
</linearGradient>
</defs>
</svg>
