<svg width="18" height="18" viewBox="0 0 18 18" fill="none" xmlns="http://www.w3.org/2000/svg">
<path d="M1 4.71114H17V14.4195C17 14.5735 16.9438 14.7211 16.8438 14.83C16.7438 14.9388 16.6081 15 16.4667 15H1.53333C1.39188 15 1.25623 14.9388 1.15621 14.83C1.05619 14.7211 1 14.5735 1 14.4195V4.71114Z" fill="url(#paint0_linear_206_72)"/>
<path opacity="0.6" d="M15.432 5.73376H2.69691C2.40236 5.73376 2.16357 5.99365 2.16357 6.31424V13.3902C2.16357 13.7108 2.40236 13.9707 2.69691 13.9707H15.432C15.7266 13.9707 15.9654 13.7108 15.9654 13.3902V6.31424C15.9654 5.99365 15.7266 5.73376 15.432 5.73376Z" fill="#5EA0EF"/>
<path d="M1.53333 1H16.4667C16.6081 1 16.7438 1.06116 16.8438 1.17002C16.9438 1.27888 17 1.42652 17 1.58047V4.71115H1V1.58144C0.999884 1.50513 1.01359 1.42954 1.04034 1.359C1.06709 1.28847 1.10636 1.22436 1.1559 1.17036C1.20543 1.11635 1.26427 1.07351 1.32903 1.04428C1.3938 1.01505 1.46322 1 1.53333 1V1Z" fill="#005BA1"/>
<path opacity="0.8" d="M7.31908 12.0802L7.03375 12.3898C7.02184 12.4029 7.00765 12.4134 6.99201 12.4205C6.97637 12.4276 6.95959 12.4313 6.94264 12.4313C6.92568 12.4313 6.9089 12.4276 6.89326 12.4205C6.87762 12.4134 6.86343 12.4029 6.85153 12.3898L4.78486 10.1337C4.73655 10.0811 4.70941 10.0098 4.70941 9.93539C4.70941 9.86101 4.73655 9.78967 4.78486 9.73706L5.07019 9.42747L7.31997 11.8819C7.34401 11.9083 7.35742 11.9441 7.35725 11.9813C7.35708 12.0185 7.34335 12.0541 7.31908 12.0802ZM10.5662 12.0802L10.8515 12.3898C10.8634 12.4029 10.8776 12.4134 10.8933 12.4205C10.9089 12.4276 10.9257 12.4313 10.9426 12.4313C10.9596 12.4313 10.9764 12.4276 10.992 12.4205C11.0077 12.4134 11.0218 12.4029 11.0337 12.3898L13.1004 10.1337C13.1487 10.0811 13.1759 10.0098 13.1759 9.93539C13.1759 9.86101 13.1487 9.78967 13.1004 9.73706L12.8142 9.42747L10.5653 11.8819C10.5413 11.9083 10.5279 11.9441 10.528 11.9813C10.5282 12.0185 10.5419 12.0541 10.5662 12.0802Z" fill="white"/>
<path d="M7.07198 7.45194L7.35643 7.7625C7.36849 7.77546 7.37807 7.7909 7.38461 7.80792C7.39115 7.82494 7.39452 7.84321 7.39452 7.86166C7.39452 7.88011 7.39115 7.89838 7.38461 7.9154C7.37807 7.93242 7.36849 7.94786 7.35643 7.96082L5.06754 10.4452L4.78309 10.1337C4.75907 10.1077 4.74 10.0768 4.72699 10.0428C4.71397 10.0088 4.70728 9.97226 4.70728 9.9354C4.70728 9.89853 4.71397 9.86203 4.72699 9.82799C4.74 9.79395 4.75907 9.76305 4.78309 9.73707L6.88976 7.45098C6.91405 7.42481 6.94688 7.41022 6.98105 7.4104C7.01522 7.41058 7.04793 7.42553 7.07198 7.45194V7.45194ZM10.8115 7.45194L10.5271 7.7625C10.515 7.77546 10.5054 7.7909 10.4989 7.80792C10.4924 7.82494 10.489 7.84321 10.489 7.86166C10.489 7.88011 10.4924 7.89838 10.4989 7.9154C10.5054 7.93242 10.515 7.94786 10.5271 7.96082L12.816 10.4452L13.1004 10.1347C13.1486 10.0818 13.1756 10.0103 13.1756 9.93588C13.1756 9.86142 13.1486 9.78997 13.1004 9.73707L10.9938 7.45194C10.9818 7.43887 10.9676 7.42852 10.9519 7.42149C10.9362 7.41445 10.9194 7.41087 10.9025 7.41096C10.8855 7.41105 10.8687 7.41481 10.8531 7.42201C10.8375 7.42921 10.8234 7.43971 10.8115 7.45291V7.45194Z" fill="white"/>
<path d="M8.25243 13.1889L7.79643 13.0312C7.77322 13.0228 7.75398 13.0048 7.74284 12.9811C7.7317 12.9574 7.72956 12.9299 7.73687 12.9045L9.59465 6.58798C9.59796 6.57521 9.60365 6.56331 9.61136 6.55304C9.61907 6.54276 9.62864 6.53432 9.63948 6.52824C9.65032 6.52216 9.66219 6.51857 9.67436 6.5177C9.68653 6.51682 9.69873 6.51868 9.71021 6.52316L10.1662 6.68183C10.1779 6.68543 10.1889 6.69162 10.1983 6.70001C10.2078 6.70841 10.2155 6.71882 10.2211 6.73062C10.2267 6.74242 10.23 6.75534 10.2308 6.76858C10.2316 6.78182 10.2299 6.7951 10.2258 6.80759L8.36798 13.128C8.3643 13.1404 8.35834 13.1519 8.35046 13.1617C8.34259 13.1716 8.33296 13.1796 8.32216 13.1853C8.31136 13.191 8.29962 13.1942 8.28764 13.1949C8.27565 13.1955 8.26367 13.1935 8.25243 13.1889Z" fill="white"/>
<path d="M3.81425 3.01522C3.81425 3.16064 3.77463 3.3028 3.70039 3.42371C3.62616 3.54462 3.52066 3.63886 3.39721 3.69452C3.27377 3.75017 3.13794 3.76473 3.0069 3.73636C2.87585 3.70799 2.75548 3.63796 2.661 3.53513C2.56652 3.4323 2.50218 3.30129 2.47612 3.15866C2.45005 3.01604 2.46343 2.8682 2.51456 2.73385C2.56569 2.59949 2.65228 2.48466 2.76337 2.40387C2.87447 2.32308 3.00508 2.27996 3.13869 2.27996C3.22741 2.27996 3.31525 2.29897 3.39721 2.33592C3.47918 2.37287 3.55365 2.42703 3.61638 2.49531C3.67911 2.56359 3.72887 2.64464 3.76282 2.73385C3.79677 2.82305 3.81425 2.91866 3.81425 3.01522V3.01522ZM5.26669 2.27996C5.13308 2.27996 5.00247 2.32308 4.89137 2.40387C4.78028 2.48466 4.69369 2.59949 4.64256 2.73385C4.59143 2.8682 4.57805 3.01604 4.60412 3.15866C4.63018 3.30129 4.69452 3.4323 4.789 3.53513C4.88348 3.63796 5.00385 3.70799 5.1349 3.73636C5.26594 3.76473 5.40177 3.75017 5.52521 3.69452C5.64866 3.63886 5.75416 3.54462 5.82839 3.42371C5.90263 3.3028 5.94225 3.16064 5.94225 3.01522C5.94225 2.82022 5.87107 2.6332 5.74438 2.49531C5.61769 2.35742 5.44586 2.27996 5.26669 2.27996V2.27996ZM7.3938 2.27996C7.26019 2.27996 7.12958 2.32308 7.01848 2.40387C6.90739 2.48466 6.8208 2.59949 6.76967 2.73385C6.71854 2.8682 6.70516 3.01604 6.73123 3.15866C6.75729 3.30129 6.82163 3.4323 6.91611 3.53513C7.01059 3.63796 7.13096 3.70799 7.26201 3.73636C7.39305 3.76473 7.52888 3.75017 7.65233 3.69452C7.77577 3.63886 7.88127 3.54462 7.95551 3.42371C8.02974 3.3028 8.06936 3.16064 8.06936 3.01522C8.06936 2.9185 8.05182 2.82273 8.01776 2.7334C7.9837 2.64407 7.93378 2.56293 7.87086 2.49462C7.80794 2.42632 7.73326 2.3722 7.65109 2.33537C7.56893 2.29853 7.48089 2.2797 7.39202 2.27996H7.3938Z" fill="white"/>
<rect y="16" width="18" height="1" fill="#F5F5F5"/>
<defs>
<linearGradient id="paint0_linear_206_72" x1="9" y1="15.001" x2="9" y2="4.71017" gradientUnits="userSpaceOnUse">
<stop stop-color="#005BA1"/>
<stop offset="0.775" stop-color="#0078D4"/>
</linearGradient>
</defs>
</svg>
